<?xml version="1.0" encoding="utf-8"?>
<!-- Generator: Adobe Illustrator 25.0.1, SVG Export Plug-In . SVG Version: 6.00 Build 0)  -->
<svg version="1.1" id="Layer_1" xmlns="http://www.w3.org/2000/svg" xmlns:xlink="http://www.w3.org/1999/xlink" x="0px" y="0px"
	 viewBox="0 0 512 512" style="enable-background:new 0 0 512 512;" xml:space="preserve">
<style type="text/css">
	.st0{fill:#FFFFFF;}
</style>
<path class="st0" d="M483.3,172h-51.7l-72-136c-3.9-7.3-13-10.1-20.3-6.3c-7.3,3.9-10.1,13-6.3,20.3L397.5,172H114.4L179,50
	c3.9-7.3,1.1-16.4-6.3-20.3c-7.3-3.9-16.4-1.1-20.3,6.3l-72,136H28.7C12.9,172,0,184.9,0,200.7v33.4c0,15.2,11.8,27.6,26.7,28.6
	l50.4,209.7c1.6,6.8,7.7,11.5,14.6,11.5h328.3c6.9,0,13-4.8,14.6-11.5l50.6-209.7c14.9-1,26.7-13.5,26.7-28.6v-33.4
	C512,184.9,499.1,172,483.3,172L483.3,172z M30.1,202.1h451.9v30.7H30.1V202.1z M434.9,343.3h-65.8l10-80.5h75.2L434.9,343.3z
	 M271.1,454v-80.6h64L325,454H271.1z M187.1,454L177,373.4h64V454H187.1z M57.7,262.8h75.2l10.1,80.5H77L57.7,262.8z M163.2,262.8
	H241v80.5h-67.7L163.2,262.8z M271.1,343.3v-80.5h77.8l-10,80.5H271.1z M84.3,373.4h62.4l10.1,80.6h-53.1L84.3,373.4z M408.2,454
	h-53l10.1-80.6h62.3L408.2,454z"/>
</svg>
